# xmcd CD Database Entry
#
# Track frame offsets:
# 150
# 18912
# 35977
# 53585
# 70752
# 87220
# 102907
# 124055
# 143980
# 163582
# 179090
# 198122
# 216952
# 232400
#
# Disc length: 3631 seconds
#
# Revision: 1
# Processed by: cddbd v1.4b42PL1 Copyright (c) Steve Scherf et al.
# Submitted via: tcd 2.0b
#
DISCID=cc0e2d0e
DTITLE=Long John Baldry - A Thrill's A Thrill - Disk #2
DYEAR=1900
DGENRE=
TTITLE0=Passing Glances
TTITLE1=Rock With The Best
TTITLE2=It Ain't Easy
TTITLE3=25 Years Of Pain
TTITLE4=Stay The Way You Are
TTITLE5=Bad Attitude
TTITLE6=Let The Heartaches Stop
TTITLE7=Ain't No Love In The Heart Of The City
TTITLE8=This Is Japan
TTITLE9=The Sun Ain't Gonna Shine Any More
TTITLE10=Here Comes Another Fool
TTITLE11=It Still Ain't Easy
TTITLE12=Midnight In New Orleans
TTITLE13=Don't Try To Lay No Boogie Woogie
EXTD=The Canadian Years
EXTT0=
EXTT1=
EXTT2=
EXTT3=
EXTT4=
EXTT5=
EXTT6=
EXTT7=
EXTT8=
EXTT9=
EXTT10=
EXTT11=
EXTT12=
EXTT13=
PLAYORDER=
